<?xml version="1.0" encoding="utf-8"?>
<!-- Generator: Adobe Illustrator 24.0.0, SVG Export Plug-In . SVG Version: 6.00 Build 0)  -->
<svg version="1.1" id="Capa_1" xmlns="http://www.w3.org/2000/svg" xmlns:xlink="http://www.w3.org/1999/xlink" x="0px" y="0px"
	 viewBox="0 0 174 50" style="enable-background:new 0 0 174 50;" xml:space="preserve">
<g>
	<polygon style="fill:#FFFFFF;" points="22.8,49.6 45.1,27.3 29.6,27.3 29.6,31.8 34.2,31.8 22.8,43.2 11.4,31.8 25,31.8 25,27.3 
		25,22.7 45.1,22.7 22.8,0.4 0.4,22.7 16,22.7 16,18.2 11.4,18.2 22.8,6.8 34.2,18.2 25,18.2 20.5,18.2 20.5,22.7 20.5,27.3 
		0.4,27.3 	"/>
	<g>
		<g>
			<path style="fill:#FFFFFF;" d="M66.6,17h-4.1v11h-4.1V17h-4.1v-3.3h12.2V17z"/>
			<path style="fill:#FFFFFF;" d="M82,20.9c0,5.3-2.3,7.5-7.5,7.5c-5.3,0-7.5-2.3-7.5-7.5c0-5.3,2.3-7.5,7.5-7.5
				C79.8,13.3,82,15.6,82,20.9z M71.2,20.9c0,3.1,1,4.5,3.3,4.5s3.3-1.3,3.3-4.5c0-3.1-1-4.5-3.3-4.5S71.2,17.7,71.2,20.9z"/>
			<path style="fill:#FFFFFF;" d="M93.9,28h-9.8V13.7h4.1V25h5.7V28z"/>
			<path style="fill:#FFFFFF;" d="M99.6,16.6v2.7h5.7v2.9h-5.7v3.1h6.5V28H95.5V13.7h10.6v2.9H99.6z"/>
			<path style="fill:#FFFFFF;" d="M121,13.7V28h-4.7l-4.5-9.2V28h-3.9V13.7h4.7l4.5,9.2v-9.2H121z"/>
			<path style="fill:#FFFFFF;" d="M134.8,17h-4.1v11h-4.1V17h-4.1v-3.3h12.2V17z"/>
			<path style="fill:#FFFFFF;" d="M140.5,13.7V28h-4.1V13.7H140.5z"/>
			<path style="fill:#FFFFFF;" d="M156.5,13.7V28h-4.7l-4.5-9.2V28h-3.9V13.7h4.7l4.5,9.2v-9.2H156.5z"/>
			<path style="fill:#FFFFFF;" d="M173.6,20.9c0,5.3-2.3,7.5-7.5,7.5c-5.3,0-7.5-2.3-7.5-7.5c0-5.3,2.3-7.5,7.5-7.5
				C171.3,13.3,173.6,15.6,173.6,20.9z M162.8,20.9c0,3.1,1,4.5,3.3,4.5c2.3,0,3.3-1.3,3.3-4.5c0-3.1-1-4.5-3.3-4.5
				C163.8,16.4,162.8,17.7,162.8,20.9z"/>
		</g>
		<g>
			<g>
				<path style="fill:#FFFFFF;stroke:#FFFFFF;stroke-width:0.5;stroke-miterlimit:10;" d="M55.6,32.2c0.4-0.2,0.8-0.3,1.3-0.3
					c0.6,0,1,0.1,1.4,0.4c0.4,0.3,0.6,0.7,0.7,1.2h-0.6c-0.1-0.3-0.3-0.6-0.5-0.8c-0.3-0.2-0.6-0.3-1-0.3c-0.3,0-0.7,0.1-0.9,0.2
					c-0.3,0.2-0.5,0.4-0.6,0.7c-0.1,0.3-0.2,0.6-0.2,1c0,0.4,0.1,0.7,0.2,1c0.1,0.3,0.3,0.5,0.6,0.7c0.3,0.2,0.6,0.2,0.9,0.2
					c0.4,0,0.7-0.1,1-0.3c0.3-0.2,0.4-0.4,0.5-0.8H59c-0.1,0.5-0.3,0.9-0.7,1.2c-0.4,0.3-0.8,0.4-1.4,0.4c-0.5,0-0.9-0.1-1.3-0.3
					c-0.4-0.2-0.6-0.5-0.8-0.8c-0.2-0.4-0.3-0.8-0.3-1.3c0-0.5,0.1-0.9,0.3-1.3C55,32.7,55.3,32.4,55.6,32.2z"/>
				<path style="fill:#FFFFFF;stroke:#FFFFFF;stroke-width:0.5;stroke-miterlimit:10;" d="M68.9,36.4c-0.4,0.2-0.8,0.3-1.2,0.3
					c-0.5,0-0.9-0.1-1.2-0.3c-0.4-0.2-0.6-0.5-0.9-0.9c-0.2-0.4-0.3-0.8-0.3-1.2c0-0.5,0.1-0.9,0.3-1.2c0.2-0.4,0.5-0.6,0.9-0.9
					c0.4-0.2,0.8-0.3,1.2-0.3c0.5,0,0.9,0.1,1.2,0.3c0.4,0.2,0.6,0.5,0.9,0.9c0.2,0.4,0.3,0.8,0.3,1.2c0,0.5-0.1,0.9-0.3,1.2
					C69.6,35.9,69.3,36.1,68.9,36.4z M66.8,35.9c0.3,0.2,0.6,0.2,0.9,0.2c0.3,0,0.7-0.1,0.9-0.2c0.3-0.2,0.5-0.4,0.6-0.7
					c0.1-0.3,0.2-0.6,0.2-1c0-0.4-0.1-0.7-0.2-1c-0.1-0.3-0.4-0.5-0.6-0.7c-0.3-0.2-0.6-0.2-0.9-0.2c-0.3,0-0.7,0.1-0.9,0.2
					c-0.3,0.2-0.5,0.4-0.6,0.7c-0.1,0.3-0.2,0.6-0.2,1c0,0.4,0.1,0.7,0.2,1C66.3,35.5,66.5,35.7,66.8,35.9z"/>
				<path style="fill:#FFFFFF;stroke:#FFFFFF;stroke-width:0.5;stroke-miterlimit:10;" d="M76.5,31.9h0.6l2.7,3.6v-3.6h0.6v4.7h-0.6
					L77.2,33v3.6h-0.6V31.9z"/>
				<path style="fill:#FFFFFF;stroke:#FFFFFF;stroke-width:0.5;stroke-miterlimit:10;" d="M87.9,35.8c0.2,0.2,0.6,0.3,1,0.3
					c0.3,0,0.6-0.1,0.8-0.2c0.2-0.1,0.3-0.3,0.3-0.6c0-0.2-0.1-0.3-0.2-0.4c-0.1-0.1-0.3-0.2-0.5-0.2c-0.2-0.1-0.4-0.1-0.8-0.2
					c-0.5-0.1-0.9-0.2-1.2-0.4c-0.3-0.2-0.4-0.5-0.4-0.9c0-0.3,0.1-0.5,0.2-0.7s0.3-0.4,0.6-0.5c0.3-0.1,0.6-0.2,0.9-0.2
					c0.4,0,0.7,0.1,0.9,0.2c0.3,0.1,0.5,0.3,0.6,0.5c0.2,0.2,0.2,0.5,0.3,0.8H90c0-0.3-0.2-0.5-0.4-0.7c-0.2-0.2-0.5-0.2-0.8-0.2
					c-0.3,0-0.6,0.1-0.8,0.2c-0.2,0.1-0.3,0.3-0.3,0.6c0,0.2,0.1,0.3,0.2,0.4c0.1,0.1,0.3,0.2,0.4,0.2c0.2,0.1,0.4,0.1,0.7,0.2
					c0.5,0.1,0.9,0.2,1.2,0.4c0.3,0.2,0.5,0.5,0.5,0.9c0,0.3-0.1,0.5-0.2,0.7c-0.2,0.2-0.4,0.4-0.6,0.5c-0.3,0.1-0.6,0.2-0.9,0.2
					c-0.4,0-0.7-0.1-1-0.2c-0.3-0.1-0.5-0.3-0.7-0.6c-0.2-0.2-0.2-0.5-0.3-0.8h0.6C87.5,35.4,87.7,35.7,87.9,35.8z"/>
				<path style="fill:#FFFFFF;stroke:#FFFFFF;stroke-width:0.5;stroke-miterlimit:10;" d="M100.7,31.9v0.5h-1.6v4.2h-0.6v-4.2h-1.6
					v-0.5H100.7z"/>
				<path style="fill:#FFFFFF;stroke:#FFFFFF;stroke-width:0.5;stroke-miterlimit:10;" d="M109.8,32.1c0.3,0.1,0.5,0.3,0.6,0.5
					c0.1,0.2,0.2,0.5,0.2,0.8c0,0.3-0.1,0.6-0.3,0.9c-0.2,0.2-0.5,0.4-0.8,0.5l1.1,1.9H110l-1-1.8h-1.3v1.8H107v-4.7h1.9
					C109.3,31.9,109.6,32,109.8,32.1z M108.9,34.3c0.3,0,0.6-0.1,0.8-0.2c0.2-0.2,0.3-0.4,0.3-0.7c0-0.3-0.1-0.5-0.3-0.7
					c-0.2-0.2-0.5-0.2-0.8-0.2h-1.3v1.8H108.9z"/>
				<path style="fill:#FFFFFF;stroke:#FFFFFF;stroke-width:0.5;stroke-miterlimit:10;" d="M117.7,34.6c0,1,0.4,1.5,1.3,1.5
					c0.9,0,1.3-0.5,1.3-1.5v-2.7h0.6v2.7c0,0.7-0.2,1.2-0.5,1.5c-0.3,0.3-0.8,0.5-1.4,0.5c-0.6,0-1.1-0.2-1.4-0.5
					c-0.3-0.3-0.5-0.9-0.5-1.5v-2.7h0.6V34.6z"/>
				<path style="fill:#FFFFFF;stroke:#FFFFFF;stroke-width:0.5;stroke-miterlimit:10;" d="M128.5,32.2c0.4-0.2,0.8-0.3,1.3-0.3
					c0.6,0,1,0.1,1.4,0.4c0.4,0.3,0.6,0.7,0.7,1.2h-0.6c-0.1-0.3-0.3-0.6-0.5-0.8c-0.3-0.2-0.6-0.3-1-0.3c-0.3,0-0.7,0.1-0.9,0.2
					c-0.3,0.2-0.5,0.4-0.6,0.7c-0.1,0.3-0.2,0.6-0.2,1c0,0.4,0.1,0.7,0.2,1c0.1,0.3,0.3,0.5,0.6,0.7c0.3,0.2,0.6,0.2,0.9,0.2
					c0.4,0,0.7-0.1,1-0.3c0.3-0.2,0.4-0.4,0.5-0.8h0.6c-0.1,0.5-0.3,0.9-0.7,1.2c-0.4,0.3-0.8,0.4-1.4,0.4c-0.5,0-0.9-0.1-1.3-0.3
					c-0.4-0.2-0.6-0.5-0.8-0.8c-0.2-0.4-0.3-0.8-0.3-1.3c0-0.5,0.1-0.9,0.3-1.3C127.8,32.7,128.1,32.4,128.5,32.2z"/>
				<path style="fill:#FFFFFF;stroke:#FFFFFF;stroke-width:0.5;stroke-miterlimit:10;" d="M141.9,31.9v0.5h-1.6v4.2h-0.6v-4.2H138
					v-0.5H141.9z"/>
				<path style="fill:#FFFFFF;stroke:#FFFFFF;stroke-width:0.5;stroke-miterlimit:10;" d="M151.7,36.4c-0.4,0.2-0.8,0.3-1.2,0.3
					c-0.5,0-0.9-0.1-1.2-0.3c-0.4-0.2-0.6-0.5-0.9-0.9c-0.2-0.4-0.3-0.8-0.3-1.2c0-0.5,0.1-0.9,0.3-1.2c0.2-0.4,0.5-0.6,0.9-0.9
					c0.4-0.2,0.8-0.3,1.2-0.3c0.5,0,0.9,0.1,1.2,0.3c0.4,0.2,0.6,0.5,0.9,0.9s0.3,0.8,0.3,1.2c0,0.5-0.1,0.9-0.3,1.2
					C152.3,35.9,152.1,36.1,151.7,36.4z M149.5,35.9c0.3,0.2,0.6,0.2,0.9,0.2c0.3,0,0.7-0.1,0.9-0.2c0.3-0.2,0.5-0.4,0.6-0.7
					c0.1-0.3,0.2-0.6,0.2-1c0-0.4-0.1-0.7-0.2-1c-0.1-0.3-0.4-0.5-0.6-0.7c-0.3-0.2-0.6-0.2-0.9-0.2c-0.3,0-0.7,0.1-0.9,0.2
					c-0.3,0.2-0.5,0.4-0.6,0.7c-0.1,0.3-0.2,0.6-0.2,1c0,0.4,0.1,0.7,0.2,1C149.1,35.5,149.3,35.7,149.5,35.9z"/>
				<path style="fill:#FFFFFF;stroke:#FFFFFF;stroke-width:0.5;stroke-miterlimit:10;" d="M162.1,32.1c0.3,0.1,0.5,0.3,0.6,0.5
					c0.1,0.2,0.2,0.5,0.2,0.8c0,0.3-0.1,0.6-0.3,0.9c-0.2,0.2-0.5,0.4-0.8,0.5l1.1,1.9h-0.7l-1-1.8h-1.3v1.8h-0.6v-4.7h1.9
					C161.6,31.9,161.9,32,162.1,32.1z M161.2,34.3c0.3,0,0.6-0.1,0.8-0.2c0.2-0.2,0.3-0.4,0.3-0.7c0-0.3-0.1-0.5-0.3-0.7
					c-0.2-0.2-0.5-0.2-0.8-0.2h-1.3v1.8H161.2z"/>
				<path style="fill:#FFFFFF;stroke:#FFFFFF;stroke-width:0.5;stroke-miterlimit:10;" d="M170.9,31.9h0.7l1.9,4.7h-0.7l-0.5-1.3
					h-2.2l-0.5,1.3H169L170.9,31.9z M172.2,34.8l-0.9-2.3l-0.9,2.3H172.2z"/>
			</g>
		</g>
	</g>
</g>
</svg>
