<?xml version="1.0" encoding="utf-8"?>
<!-- Generator: Adobe Illustrator 24.0.0, SVG Export Plug-In . SVG Version: 6.00 Build 0)  -->
<svg version="1.1" id="Capa_1" xmlns="http://www.w3.org/2000/svg" xmlns:xlink="http://www.w3.org/1999/xlink" x="0px" y="0px"
	 viewBox="0 0 30 30" style="enable-background:new 0 0 30 30;" xml:space="preserve">
<path style="fill:#0071B8;" d="M3.5-41c-9.4,0-17.1-7.7-17.1-17.1c0-9.4,7.7-17.1,17.1-17.1c9.4,0,17.1,7.7,17.1,17.1
	C20.6-48.7,12.9-41,3.5-41z"/>
<g style="opacity:0.7;">
	<path style="fill-rule:evenodd;clip-rule:evenodd;fill:#818181;" d="M1.1-58.1v8.6c0,0.1,0.1,0.2,0.2,0.2h3.2
		c0.1,0,0.2-0.1,0.2-0.2v-8.7h2.3c0.1,0,0.2-0.1,0.2-0.2L7.5-61c0-0.1-0.1-0.2-0.2-0.2H4.8v-1.9c0-0.4,0.4-0.8,0.8-0.8h1.8
		c0.1,0,0.2-0.1,0.2-0.2v-2.6c0-0.1-0.1-0.2-0.2-0.2h-3c-1.8,0-3.2,1.4-3.2,3.2v2.5h-1.6c-0.1,0-0.2,0.1-0.2,0.2v2.6
		c0,0.1,0.1,0.2,0.2,0.2h1.6V-58.1z"/>
</g>
<g>
	<path style="fill:#0071B8;" d="M85.9,17.1c-9.4,0-17.1-7.7-17.1-17.1s7.7-17.1,17.1-17.1S103-9.4,103,0S95.4,17.1,85.9,17.1z"/>
</g>
<g style="opacity:0.7;">
	<path style="fill:#818181;" d="M91.8-4.8c0,0.6-0.5,1.1-1.1,1.1s-1.1-0.5-1.1-1.1c0-0.6,0.5-1.1,1.1-1.1S91.8-5.4,91.8-4.8z
		 M88.9-0.1c0-1.6-1.3-2.8-2.8-2.8c-1.6,0-2.8,1.3-2.8,2.8c0,1.6,1.3,2.8,2.8,2.8C87.6,2.7,88.9,1.4,88.9-0.1z M90.5-0.1
		c0,2.4-2,4.4-4.4,4.4c-2.4,0-4.4-2-4.4-4.4c0-2.4,2-4.4,4.4-4.4C88.5-4.5,90.5-2.6,90.5-0.1z M93.2,3.6c0,2-1.7,3.7-3.7,3.7h-7.2
		c-2,0-3.7-1.7-3.7-3.7v-7.2c0-2,1.7-3.7,3.7-3.7h7.2c2,0,3.7,1.7,3.7,3.7V3.6z M95-3.7c0-3-2.4-5.4-5.4-5.4h-7.4
		c-3,0-5.4,2.4-5.4,5.4v7.4c0,3,2.4,5.4,5.4,5.4h7.4c3,0,5.4-2.4,5.4-5.4V-3.7z"/>
</g>
<g>
	<path style="fill:#0071B8;" d="M116.4,34.2c-9.4,0-17.1-7.7-17.1-17.1C99.3,7.7,107,0,116.4,0c9.4,0,17.1,7.7,17.1,17.1
		C133.5,26.5,125.8,34.2,116.4,34.2z"/>
</g>
<g>
	<path style="fill:#0071B8;" d="M-37.1,5.9c-9.4,0-17.1-7.7-17.1-17.1s7.7-17.1,17.1-17.1S-20-20.6-20-11.2S-27.7,5.9-37.1,5.9z"/>
</g>
<g style="opacity:0.7;">
	<path style="fill:#818181;" d="M-30.8-14.2c-1.7,1.8-3.4,3.6-5.1,5.4c-0.8-0.9-1.6-1.7-2.4-2.6c-0.8,0.4-3.9,2.1-4.6,2.5
		c0,0,0,0,0,0c0,0,0,0,0,0c1.7-1.8,3.4-3.6,5.1-5.4l2.4,2.6L-30.8-14.2C-30.8-14.3-30.8-14.2-30.8-14.2z M-36.8-20.6
		c-5.2,0-9.4,3.9-9.4,8.8c0,2.8,1.4,5.2,3.5,6.8l0,3.3l3.1-1.7c0.9,0.2,1.8,0.4,2.7,0.4c5.2,0,9.4-3.9,9.4-8.8
		C-27.4-16.7-31.6-20.6-36.8-20.6z"/>
</g>
<g>
	<path style="fill:#FFFFFF;" d="M15,5.6c-5.2,0-9.4,3.9-9.4,8.8c0,2.8,1.4,5.2,3.5,6.8l0,3.3l3.1-1.7c0.9,0.2,1.8,0.4,2.7,0.4
		c5.2,0,9.4-3.9,9.4-8.8S20.2,5.6,15,5.6z M21,11.9c-1.7,1.8-3.4,3.6-5.1,5.4c-0.8-0.9-1.6-1.7-2.4-2.6c-0.8,0.4-3.9,2.1-4.6,2.5
		c0,0,0,0,0,0c0,0,0,0,0,0c1.7-1.8,3.4-3.6,5.1-5.4c0.1,0.1,2.3,2.4,2.4,2.6C18,13.6,19.5,12.7,21,11.9C21.1,11.9,21.1,11.9,21,11.9
		C21.1,11.9,21,11.9,21,11.9z"/>
</g>
</svg>
