<?xml version="1.0" encoding="utf-8"?>
<!-- Generator: Adobe Illustrator 24.0.0, SVG Export Plug-In . SVG Version: 6.00 Build 0)  -->
<svg version="1.1" id="Capa_1" xmlns="http://www.w3.org/2000/svg" xmlns:xlink="http://www.w3.org/1999/xlink" x="0px" y="0px"
	 viewBox="0 0 30 30" style="enable-background:new 0 0 30 30;" xml:space="preserve">
<path style="fill:#0071B8;" d="M3.5-41c-9.4,0-17.1-7.7-17.1-17.1c0-9.4,7.7-17.1,17.1-17.1c9.4,0,17.1,7.7,17.1,17.1
	C20.6-48.7,12.9-41,3.5-41z"/>
<g style="opacity:0.7;">
	<path style="fill-rule:evenodd;clip-rule:evenodd;fill:#818181;" d="M1.1-58.1v8.6c0,0.1,0.1,0.2,0.2,0.2h3.2
		c0.1,0,0.2-0.1,0.2-0.2v-8.7h2.3c0.1,0,0.2-0.1,0.2-0.2L7.5-61c0-0.1-0.1-0.2-0.2-0.2H4.8v-1.9c0-0.4,0.4-0.8,0.8-0.8h1.8
		c0.1,0,0.2-0.1,0.2-0.2v-2.6c0-0.1-0.1-0.2-0.2-0.2h-3c-1.8,0-3.2,1.4-3.2,3.2v2.5h-1.6c-0.1,0-0.2,0.1-0.2,0.2v2.6
		c0,0.1,0.1,0.2,0.2,0.2h1.6V-58.1z"/>
</g>
<g>
	<g>
		<path style="fill:#0071B8;" d="M107.3-40.7c-9.4,0-17.1-7.7-17.1-17.1s7.7-17.1,17.1-17.1s17.1,7.7,17.1,17.1
			S116.8-40.7,107.3-40.7z"/>
	</g>
	<g style="opacity:0.7;">
		<path style="fill:#818181;" d="M113.2-62.6c0,0.6-0.5,1.1-1.1,1.1s-1.1-0.5-1.1-1.1c0-0.6,0.5-1.1,1.1-1.1S113.2-63.2,113.2-62.6z
			 M110.3-57.9c0-1.6-1.3-2.8-2.8-2.8c-1.6,0-2.8,1.3-2.8,2.8c0,1.6,1.3,2.8,2.8,2.8C109-55.1,110.3-56.4,110.3-57.9z M111.9-57.9
			c0,2.4-2,4.4-4.4,4.4c-2.4,0-4.4-2-4.4-4.4c0-2.4,2-4.4,4.4-4.4C109.9-62.3,111.9-60.4,111.9-57.9z M114.6-54.2
			c0,2-1.7,3.7-3.7,3.7h-7.2c-2,0-3.7-1.7-3.7-3.7v-7.2c0-2,1.7-3.7,3.7-3.7h7.2c2,0,3.7,1.7,3.7,3.7V-54.2z M116.4-61.5
			c0-3-2.4-5.4-5.4-5.4h-7.4c-3,0-5.4,2.4-5.4,5.4v7.4c0,3,2.4,5.4,5.4,5.4h7.4c3,0,5.4-2.4,5.4-5.4V-61.5z"/>
	</g>
	<path style="fill:#FFFFFF;" d="M113.2-62.6c0,0.6-0.5,1.1-1.1,1.1s-1.1-0.5-1.1-1.1c0-0.6,0.5-1.1,1.1-1.1S113.2-63.2,113.2-62.6z
		 M111.9-57.9c0,2.4-2,4.4-4.4,4.4c-2.4,0-4.4-2-4.4-4.4c0-2.4,2-4.4,4.4-4.4C109.9-62.3,111.9-60.4,111.9-57.9z M110.3-57.9
		c0-1.6-1.3-2.8-2.8-2.8c-1.6,0-2.8,1.3-2.8,2.8c0,1.6,1.3,2.8,2.8,2.8C109-55.1,110.3-56.4,110.3-57.9z M116.4-61.5
		c0-3-2.4-5.4-5.4-5.4h-7.4c-3,0-5.4,2.4-5.4,5.4v7.4c0,3,2.4,5.4,5.4,5.4h7.4c3,0,5.4-2.4,5.4-5.4V-61.5z M114.6-54.2
		c0,2-1.7,3.7-3.7,3.7h-7.2c-2,0-3.7-1.7-3.7-3.7v-7.2c0-2,1.7-3.7,3.7-3.7h7.2c2,0,3.7,1.7,3.7,3.7V-54.2z"/>
</g>
<g>
	<path style="fill:#0071B8;" d="M116.4,34.2c-9.4,0-17.1-7.7-17.1-17.1C99.3,7.7,107,0,116.4,0c9.4,0,17.1,7.7,17.1,17.1
		C133.5,26.5,125.8,34.2,116.4,34.2z"/>
</g>
<g>
	<path style="fill:#FFFFFF;" d="M18.4,16.1c-0.4-0.2-0.8-0.5-1.3-0.3c-0.3,0.1-0.5,0.7-0.8,0.9c-0.1,0.1-0.2,0.2-0.4,0.1
		c-1.2-0.5-2.2-1.3-2.9-2.5c-0.1-0.2-0.1-0.3,0-0.5c0.2-0.2,0.5-0.5,0.5-0.9c0.1-0.3-0.1-0.7-0.2-1c-0.2-0.4-0.4-0.9-0.7-1.1
		c-0.3-0.2-0.8-0.1-1.1,0.2c-0.5,0.4-0.8,1.1-0.8,1.8c0,0.2,0,0.4,0.1,0.6c0.1,0.4,0.3,0.9,0.5,1.2c0.2,0.3,0.4,0.6,0.6,0.9
		c0.7,0.9,1.5,1.7,2.5,2.3c0.5,0.3,1,0.6,1.5,0.7c0.6,0.2,1.1,0.4,1.8,0.3c0.7-0.1,1.3-0.5,1.6-1.2c0.1-0.2,0.1-0.4,0.1-0.6
		C19.3,16.6,18.7,16.3,18.4,16.1z"/>
	<path style="fill:#FFFFFF;" d="M15.1,6c-4.9,0-8.9,4-8.9,8.9c0,1.5,0.4,3,1.1,4.3L6,24l4.9-1.3c1.3,0.7,2.8,1.1,4.2,1.1
		c4.9,0,8.9-4,8.9-8.9C24,10,20,6,15.1,6z M15.1,22.1c-1.3,0-2.6-0.4-3.7-1l-0.3-0.2l-2.7,0.7l0.7-2.7l-0.2-0.3
		c-0.7-1.1-1.1-2.4-1.1-3.8c0-4,3.2-7.2,7.2-7.2c4,0,7.2,3.2,7.2,7.2S19.1,22.1,15.1,22.1z"/>
</g>
<g>
	<g>
		<path style="fill:#0071B8;" d="M159.3-40.7c-9.4,0-17.1-7.7-17.1-17.1s7.7-17.1,17.1-17.1c9.4,0,17.1,7.7,17.1,17.1
			S168.7-40.7,159.3-40.7z"/>
	</g>
	<g style="opacity:0.7;">
		<path style="fill:#818181;" d="M165.6-60.8c-1.7,1.8-3.4,3.6-5.1,5.4c-0.8-0.9-1.6-1.7-2.4-2.6c-0.8,0.4-3.9,2.1-4.6,2.5
			c0,0,0,0,0,0c0,0,0,0,0,0c1.7-1.8,3.4-3.6,5.1-5.4l2.4,2.6L165.6-60.8C165.6-60.9,165.6-60.9,165.6-60.8z M159.6-67.2
			c-5.2,0-9.4,3.9-9.4,8.8c0,2.8,1.4,5.2,3.5,6.8l0,3.3l3.1-1.7c0.9,0.2,1.8,0.4,2.7,0.4c5.2,0,9.4-3.9,9.4-8.8
			C169-63.3,164.8-67.2,159.6-67.2z"/>
	</g>
	<g>
		<path style="fill:#FFFFFF;" d="M159.6-67.2c-5.2,0-9.4,3.9-9.4,8.8c0,2.8,1.4,5.2,3.5,6.8l0,3.3l3.1-1.7c0.9,0.2,1.8,0.4,2.7,0.4
			c5.2,0,9.4-3.9,9.4-8.8S164.8-67.2,159.6-67.2z M165.6-60.8c-1.7,1.8-3.4,3.6-5.1,5.4c-0.8-0.9-1.6-1.7-2.4-2.6
			c-0.8,0.4-3.9,2.1-4.6,2.5c0,0,0,0,0,0c0,0,0,0,0,0c1.7-1.8,3.4-3.6,5.1-5.4c0.1,0.1,2.3,2.4,2.4,2.6
			C162.6-59.2,164.1-60.1,165.6-60.8C165.6-60.9,165.6-60.9,165.6-60.8C165.6-60.9,165.6-60.9,165.6-60.8z"/>
	</g>
</g>
</svg>
